<svg xmlns="http://www.w3.org/2000/svg" width="40" height="40" viewBox="0 0 40 40" fill="none">
  <path d="M20 0L25.9 5.9L34.1 5.9L34.1 14.1L40 20L34.1 25.9L34.1 34.1L25.9 34.1L20 40L14.1 34.1L5.9 34.1L5.9 25.9L0 20L5.9 14.1L5.9 5.9L14.1 5.9L20 0Z" fill="#38BDF8"/>
  <path d="M28 20C28 24.4183 24.4183 28 20 28C15.5817 28 12 24.4183 12 20C12 15.5817 15.5817 12 20 12C24.4183 12 28 15.5817 28 20Z" fill="white"/>
  <path d="M24 20C24 22.2091 22.2091 24 20 24C17.7909 24 16 22.2091 16 20C16 17.7909 17.7909 16 20 16C22.2091 16 24 17.7909 24 20Z" fill="#38BDF8"/>
</svg>

